<svg width="25" height="24" viewBox="0 0 25 24" fill="none" xmlns="http://www.w3.org/2000/svg">
<path d="M6.30847 18.71L4.70847 10.71H20.2685L18.6685 18.71H6.30847ZM5.48847 20.71H19.4885C20.0285 20.71 20.3685 20.42 20.4685 19.91L22.4285 10.11C22.5385 9.58 22.4385 9.24 22.0485 8.85L15.1985 2L13.7785 3.42L18.1085 7.74C18.8285 8.46 19.5085 8.59 20.5285 8.59V8.71H4.45847V8.59C5.47847 8.59 6.15847 8.46 6.87847 7.74L11.1985 3.42L9.77847 2L2.90847 8.82C2.49847 9.23 2.43847 9.57 2.54847 10.11L4.50847 19.91C4.60847 20.42 4.95847 20.71 5.48847 20.71Z" fill="#5F5F5F"/>
<path d="M17.4885 16.71H15.4885V12.71H17.4885V16.71Z" fill="#8E8E8E"/>
<path d="M13.4885 16.71H11.4885V12.71H13.4885V16.71Z" fill="#8E8E8E"/>
<path d="M9.48846 16.71H7.48846V12.71H9.48846V16.71Z" fill="#8E8E8E"/>
</svg>
