<svg width="25" height="24" viewBox="0 0 25 24" fill="none" xmlns="http://www.w3.org/2000/svg">
<path d="M19.75 6H18.61C17.66 6 17.09 6.49 16.87 7.33H16.75V5C16.75 2.76 14.95 1 12.75 1C10.53 1 8.75 2.79 8.75 5V6H5.75C4.65 6 3.75 6.9 3.75 8V19C3.75 20.1 4.65 21 5.75 21H11.75V19H5.75V8H8.75V10H10.75V8H14.75V10H16.75V8H19.75V11.01H21.75V8C21.75 6.9 20.86 6 19.75 6ZM10.87 7.33H10.75V5C10.75 3.86 11.65 3 12.75 3C13.85 3 14.75 3.86 14.75 5V6H12.61C11.66 6 11.09 6.49 10.87 7.33Z" fill="#5F5F5F"/>
<path d="M20.2501 20.9996C21.0785 20.9996 21.7501 20.328 21.7501 19.4996C21.7501 18.6711 21.0785 17.9996 20.2501 17.9996C19.4216 17.9996 18.7501 18.6711 18.7501 19.4996C18.7501 20.328 19.4216 20.9996 20.2501 20.9996Z" fill="#8E8E8E"/>
<path d="M20.3555 13.0059L13.7582 19.6031L15.1583 21.0032L21.7555 14.4059L20.3555 13.0059Z" fill="#8E8E8E"/>
<path d="M15.2501 16.0096C16.0785 16.0096 16.7501 15.338 16.7501 14.5096C16.7501 13.6811 16.0785 13.0096 15.2501 13.0096C14.4216 13.0096 13.7501 13.6811 13.7501 14.5096C13.7501 15.338 14.4216 16.0096 15.2501 16.0096Z" fill="#8E8E8E"/>
</svg>
