<svg width="24" height="24" viewBox="0 0 24 24" fill="none" xmlns="http://www.w3.org/2000/svg">
<g clip-path="url(#clip0_142_1257)">
<path d="M13.4 14.78V12.57C12.71 12.3 11.98 12.12 11.22 12.04V11.93C13.59 11.54 15.4 9.48 15.4 7C15.4 4.24 13.16 2 10.4 2C7.64 2 5.4 4.24 5.4 7C5.4 9.48 7.21 11.54 9.58 11.93V12.04C6.39 12.36 3.7 14.52 2.67 17.5C2.28 18.63 2.18 19.85 2.08 21.05L2 22H4.01L4.08 21.05C4.17 19.85 4.26 18.71 4.75 17.66C5.81 15.39 7.97 14 10.4 14C11.47 14 12.49 14.27 13.4 14.78ZM7.4 7C7.4 5.34 8.74 4 10.4 4C12.06 4 13.4 5.34 13.4 7C13.4 8.66 12.06 10 10.4 10C8.74 10 7.4 8.66 7.4 7Z" fill="#5F5F5F"/>
<path fill-rule="evenodd" clip-rule="evenodd" d="M17.8199 20C18.9245 20 19.8199 19.1046 19.8199 18C19.8199 16.8954 18.9245 16 17.8199 16C16.7154 16 15.8199 16.8954 15.8199 18C15.8199 19.1046 16.7154 20 17.8199 20ZM17.8199 22C20.0291 22 21.8199 20.2091 21.8199 18C21.8199 15.7909 20.0291 14 17.8199 14C15.6108 14 13.8199 15.7909 13.8199 18C13.8199 20.2091 15.6108 22 17.8199 22Z" fill="#8E8E8E"/>
</g>
<defs>
<clipPath id="clip0_142_1257">
<rect width="19.82" height="20" fill="white" transform="translate(2 2)"/>
</clipPath>
</defs>
</svg>
